<svg xmlns="http://www.w3.org/2000/svg" width="1920" height="600" viewBox="0 0 1920 600">
  <defs>
    <style>
      .cls-1 {
        fill: #45aae0;
        fill-rule: evenodd;
      }
    </style>
  </defs>
  <path id="Fond_1" data-name="Fond 1" class="cls-1" d="M181,223.709v113.2q0,14.349-5,19.81t-16.848,5.462a79.255,79.255,0,0,1-21.587-3.29V401.8a144.453,144.453,0,0,0,36.856,4.344q23.165,0,36.724-7.964t18.23-21.586q4.671-13.624,4.673-39.686v-113.2H181ZM422.33,403.38L365.979,223.709H307.668L252.2,403.38h44.773l10.788-35.408H355.9l10.154,35.408H422.33ZM331.672,276.627l14.536,52.12H317.139Zm213.295-52.918-33.2,115.042q-2.25-8.422-5.158-17.112l-28.434-97.93H420.053l58.3,179.671h56.2l55.754-179.671H544.967ZM759.479,403.38l-56.35-179.671H644.818L589.351,403.38h44.774l10.787-35.408h48.133L703.2,403.38h56.281ZM668.821,276.627l14.537,52.12H654.289ZM845.294,406.144q35.934,0,58.047-16.924t22.113-44.192q0-17.255-9.076-29.966a49.409,49.409,0,0,0-22.635-17.957q-13.563-5.244-45.815-12.066-11.717-2.493-15.8-5.257a8.849,8.849,0,0,1-4.081-7.766q0-11.187,18.033-11.188,21.719,0,28.827,18.033l45.674-13.821q-17.64-44.094-72.526-44.1-36.2,0-55.481,16.854t-19.283,42.263a49.154,49.154,0,0,0,13.421,34.365Q800.136,329.043,847.4,338.1q12.375,2.5,17.18,5.72a10.265,10.265,0,0,1,4.8,9.016q0,11.057-20.8,11.057-26.722,0-33.17-21.719l-51.2,9.214q15.4,54.759,81.083,54.757h0ZM1027.62,364.55q-12.24,0-19.02-10.53t-6.78-39.883q0-52.387,26.07-52.388,9.345,0,16.25,8.029t6.91,26.062l51.47-2.764q-2.505-32.642-21.65-52.387t-54.83-19.744q-38.175,0-59.492,25.93t-21.323,68.183q0,42.646,22.508,66.867t59.1,24.219q30.4,0,51.27-17.638t24.42-50.677l-50.41-3.027q-2.64,29.749-24.49,29.748h0Zm229.19-39.488q19.215-9.082,25.54-21t6.32-27.444q0-23.823-17.18-38.369t-48.24-14.545H1129.4V403.38h55.15V334.67h17.39l26.24,68.71h61.14Zm-72.26-63.181h25.4q21.195,0,21.2,17.243,0,8.425-6.32,12.768t-16.72,4.343h-23.56V261.881Zm137.58-38.172V403.38h55.15V223.709h-55.15Zm180.35,114.384q29.88,0,47.78-15.8t17.9-41.462a54.9,54.9,0,0,0-8.75-30.406,53.06,53.06,0,0,0-23.69-20.139q-14.94-6.581-43.64-6.581h-76.74V403.38h55.95V338.093h31.19Zm-31.98-73.317h20.27q22.5,0,22.5,16.849,0,17.9-24.35,17.9H1470.5v-34.75Zm236.03,1.975V223.709H1579.77v43.042h37.25V403.38h52.26V266.751h37.25Z"/>
</svg>
